<svg width="32" height="32" viewBox="0 0 32 32" fill="none" xmlns="http://www.w3.org/2000/svg">
<rect width="32" height="32" rx="16" fill="#FFD9B8"/>
<path fill-rule="evenodd" clip-rule="evenodd" d="M12.4643 8.21429C12.4643 7.54365 11.9206 7 11.25 7C10.5794 7 10.0357 7.54365 10.0357 8.21429V9.42857H8.82143C7.81548 9.42857 7 10.244 7 11.25V22.1786C7 23.1845 7.81548 24 8.82143 24H22.1786C23.1845 24 24 23.1845 24 22.1786V11.25C24 10.244 23.1845 9.42857 22.1786 9.42857H20.9644V8.21429C20.9644 7.54365 20.4208 7 19.7501 7C19.0795 7 18.5358 7.54365 18.5358 8.21429V9.42857H12.4643V8.21429ZM14.2495 13.5909C14.2495 13.3278 14.4628 13.1146 14.7259 13.1146H16.2742C16.5373 13.1146 16.7506 13.3278 16.7506 13.5909V15.4855H18.6452C18.9083 15.4855 19.1216 15.6988 19.1216 15.9619V17.5102C19.1216 17.7733 18.9083 17.9866 18.6452 17.9866H16.7506L16.7505 19.8811C16.7505 20.1443 16.5372 20.3576 16.2741 20.3576H14.7259C14.4628 20.3576 14.2495 20.1443 14.2495 19.8811V17.9866H12.3549C12.0918 17.9866 11.8785 17.7733 11.8785 17.5102V15.9619C11.8785 15.6988 12.0918 15.4855 12.3549 15.4855H14.2495V13.5909Z" fill="#020202"/>
</svg>
