<svg width="32" height="32" viewBox="0 0 32 32" fill="none" xmlns="http://www.w3.org/2000/svg">
<rect width="32" height="32" rx="16" fill="#FFD4F6"/>
<path fill-rule="evenodd" clip-rule="evenodd" d="M8.54917 7.56487C8.9008 7.20319 9.37772 7 9.87499 7H16.8572C17.3545 7 17.8314 7.20319 18.183 7.56487L22.4508 11.9546C22.8024 12.3162 23 12.8068 23 13.3183V23.0714C23 23.5829 22.8024 24.0735 22.4508 24.4352C22.0991 24.7969 21.6223 25 21.125 25H9.87499C9.37771 25 8.9008 24.7969 8.54917 24.4352C8.19754 24.0735 8 23.5829 8 23.0714V8.92857C8 8.41709 8.19754 7.92654 8.54917 7.56487ZM14.3894 12.8222C14.8107 13.1317 14.9083 13.734 14.6074 14.1673L12.8618 16.681C12.7016 16.9117 12.4509 17.0582 12.1762 17.0815C11.9016 17.1049 11.6309 17.0028 11.436 16.8024L10.3886 15.7251C10.0225 15.3485 10.0225 14.738 10.3886 14.3614C10.7548 13.9848 11.3483 13.9848 11.7145 14.3614L11.9793 14.6338L13.0816 13.0464C13.3826 12.613 13.9681 12.5126 14.3894 12.8222ZM15.5765 15.1964C15.5765 14.6639 15.9963 14.2321 16.514 14.2321H19.639C20.1568 14.2321 20.5765 14.6639 20.5765 15.1964C20.5765 15.729 20.1568 16.1607 19.639 16.1607H16.514C15.9963 16.1607 15.5765 15.729 15.5765 15.1964ZM15.5765 20.2992C15.5765 19.7666 15.9963 19.3348 16.514 19.3348H19.639C20.1568 19.3348 20.5765 19.7666 20.5765 20.2992C20.5765 20.8317 20.1568 21.2635 19.639 21.2635H16.514C15.9963 21.2635 15.5765 20.8317 15.5765 20.2992ZM14.6074 19.3504C14.9083 18.917 14.8107 18.3148 14.3894 18.0052C13.9681 17.6957 13.3826 17.7961 13.0816 18.2294L11.9793 19.8168L11.7145 19.5444C11.3483 19.1678 10.7548 19.1678 10.3886 19.5444C10.0225 19.921 10.0225 20.5315 10.3886 20.9081L11.436 21.9854C11.6309 22.1858 11.9016 22.2879 12.1762 22.2645C12.4509 22.2412 12.7016 22.0947 12.8618 21.864L14.6074 19.3504Z" fill="#020202"/>
</svg>
