<svg width="32" height="32" viewBox="0 0 32 32" fill="none" xmlns="http://www.w3.org/2000/svg">
<rect width="32" height="32" rx="16" fill="#FCF6D3"/>
<path d="M8.85 9.92857C8.85 9.41496 9.27453 9 9.8 9H10.75C11.2755 9 11.7 9.41496 11.7 9.92857V14.5714V16.4286V21.0714C11.7 21.585 11.2755 22 10.75 22H9.8C9.27453 22 8.85 21.585 8.85 21.0714V19.2143H7.9C7.37453 19.2143 6.95 18.7993 6.95 18.2857V16.4286C6.42453 16.4286 6 16.0136 6 15.5C6 14.9864 6.42453 14.5714 6.95 14.5714V12.7143C6.95 12.2007 7.37453 11.7857 7.9 11.7857H8.85V9.92857ZM22.15 9.92857V11.7857H23.1C23.6255 11.7857 24.05 12.2007 24.05 12.7143V14.5714C24.5755 14.5714 25 14.9864 25 15.5C25 16.0136 24.5755 16.4286 24.05 16.4286V18.2857C24.05 18.7993 23.6255 19.2143 23.1 19.2143H22.15V21.0714C22.15 21.585 21.7255 22 21.2 22H20.25C19.7245 22 19.3 21.585 19.3 21.0714V16.4286V14.5714V9.92857C19.3 9.41496 19.7245 9 20.25 9H21.2C21.7255 9 22.15 9.41496 22.15 9.92857ZM18.35 14.5714V16.4286H12.65V14.5714H18.35Z" fill="#020202"/>
</svg>
