<svg width="32" height="32" viewBox="0 0 32 32" fill="none" xmlns="http://www.w3.org/2000/svg">
<rect width="32" height="32" rx="16" fill="#FCF6D3"/>
<path fill-rule="evenodd" clip-rule="evenodd" d="M13.773 14.0118L11.2772 16.5076C10.6886 17.0961 10.3579 17.8944 10.3579 18.7268C10.3579 19.5591 10.6886 20.3574 11.2772 20.946C11.8657 21.5345 12.664 21.8652 13.4964 21.8652C14.3287 21.8652 15.127 21.5345 15.7156 20.946L18.2114 18.4502L13.773 14.0118ZM18.7268 8C17.2691 8 15.871 8.57908 14.8403 9.60985L9.60985 14.8403C8.57908 15.871 8 17.2691 8 18.7268C8 20.1845 8.57908 21.5825 9.60985 22.6133C10.6406 23.644 12.0386 24.2231 13.4964 24.2231C14.9541 24.2231 16.3521 23.644 17.3829 22.6133L22.6133 17.3829C23.644 16.3521 24.2231 14.9541 24.2231 13.4964C24.2231 12.0386 23.644 10.6406 22.6133 9.60985C21.5825 8.57908 20.1845 8 18.7268 8Z" fill="#020202"/>
</svg>
