<svg width="32" height="32" viewBox="0 0 32 32" fill="none" xmlns="http://www.w3.org/2000/svg">
<rect width="32" height="32" rx="16" fill="#FCF6D3"/>
<g clip-path="url(#clip0_482_8707)">
<path d="M15.6347 8.78364C15.6347 8.36433 15.8013 7.9622 16.0978 7.6657C16.3943 7.36921 16.7964 7.20264 17.2157 7.20264C17.635 7.20264 18.0372 7.36921 18.3336 7.6657C18.6301 7.9622 18.7967 8.36433 18.7967 8.78364C18.7967 9.20294 18.6301 9.60508 18.3336 9.90157C18.0372 10.1981 17.635 10.3646 17.2157 10.3646C16.7964 10.3646 16.3943 10.1981 16.0978 9.90157C15.8013 9.60508 15.6347 9.20294 15.6347 8.78364ZM14.5313 13.7671C14.4984 13.7803 14.4687 13.7934 14.4358 13.8066L14.1723 13.9219C13.6321 14.1623 13.2171 14.6202 13.0294 15.1801L12.9437 15.437C12.7593 15.9904 12.1631 16.2868 11.6098 16.1023C11.0564 15.9179 10.76 15.3217 10.9444 14.7684L11.0301 14.5115C11.4055 13.3883 12.2356 12.4726 13.3159 11.9917L13.5794 11.8765C14.2645 11.5734 15.0056 11.4153 15.7566 11.4153C17.2256 11.4153 18.5497 12.2981 19.1129 13.6518L19.6202 14.8672L20.325 15.2196C20.8454 15.4798 21.0562 16.1122 20.796 16.6326C20.5358 17.153 19.9034 17.3639 19.383 17.1036L18.5003 16.6656C18.161 16.4943 17.8942 16.211 17.7493 15.8586L17.4331 15.101L16.7974 17.2584L18.4278 19.0371C18.6057 19.2314 18.7308 19.4653 18.7967 19.7222L19.5543 22.7557C19.6959 23.3189 19.3534 23.8921 18.7868 24.0337C18.2203 24.1753 17.6505 23.8328 17.5089 23.2662L16.7842 20.3645L14.4556 17.825C13.9681 17.2947 13.7869 16.5536 13.9714 15.8586L14.528 13.7671H14.5313ZM12.6275 20.3118L13.451 18.2565C13.5201 18.3553 13.5992 18.4475 13.6815 18.5397L15.0221 20.0021L14.5445 21.1945C14.4654 21.3921 14.3469 21.5733 14.1953 21.7248L12.1631 23.757C11.7514 24.1687 11.0828 24.1687 10.671 23.757C10.2593 23.3453 10.2593 22.6767 10.671 22.2649L12.6275 20.3118Z" fill="#020202"/>
</g>
<defs>
<clipPath id="clip0_482_8707">
<rect width="10.54" height="16.864" fill="white" transform="translate(10.3649 7.20264)"/>
</clipPath>
</defs>
</svg>
